<svg width="400" height="400" viewBox="0 0 400 400" fill="none" xmlns="http://www.w3.org/2000/svg">
<g clip-path="url(#clip0_1_2)">
<g clip-path="url(#clip1_1_2)">
<path d="M15.4888 277.091C26.3811 188.012 71.7834 159.44 112.437 134.123C153.949 108.261 189.854 85.6089 185.535 0.500793C166.599 1.85408 147.955 5.91361 130.171 12.5556C131.977 80.1002 99.9799 100.132 68.9307 119.475C36.1376 139.9 5.15996 159.199 3.21938 235.355C5.81278 249.851 9.93538 263.847 15.4888 277.091Z" fill="url(#paint0_linear_1_2)"/>
<path d="M59.4692 104.29C88.408 86.2528 111.811 71.4972 112.339 20.2374C59.666 46.0551 19.9602 94.3549 5.75018 152.554C20.3358 128.686 40.609 116.032 59.4692 104.29ZM64.7544 347.184C71.8013 252.248 113.457 219.115 153.851 187.038C197.733 152.197 239.201 119.18 236.866 3.35353C225.82 1.29905 214.62 0.177259 203.385 0C208.017 95.3386 164.332 122.864 121.89 149.299C78.8929 176.083 34.519 203.886 31.1029 306.879C40.5128 321.725 51.8261 335.276 64.7544 347.184ZM278.942 242.804C319.023 210.637 356.833 180.017 354.812 73.2768C344.007 60.1244 331.579 48.3935 317.825 38.3644C317.262 154.978 271.931 191.428 227.995 226.681C186.644 259.867 147.609 291.265 144.747 392.256C161.238 396.995 178.578 399.687 196.499 400.009C201.212 305.457 240.658 273.541 278.942 242.804ZM346.12 284.522C317.414 302.014 292.517 317.351 289.62 378.859C344.662 351.199 385.236 298.902 396.79 236.491C383.894 261.477 364.336 273.424 346.12 284.522Z" fill="url(#paint1_linear_1_2)"/>
<path d="M336.82 269.257C367.565 250.513 396.62 232.824 393.078 150.578L393.999 150.542C389.316 132.226 382.041 114.673 372.394 98.4149C368.164 193.834 328.619 225.885 290.156 256.755C253.554 286.105 219.026 314.069 214.456 399.508C233.967 398.128 253.168 393.879 271.439 386.899C272.53 308.435 306.674 287.625 336.82 269.257ZM216.817 212.73C260.77 177.469 302.301 144.068 299.868 26.6673C285.706 18.482 270.589 12.0724 254.859 7.58344C256.138 128.668 209.815 165.441 164.976 201.042C124.143 233.459 85.6089 264.258 81.9334 361.314C95.8704 371.551 111.078 379.935 127.175 386.255C131.592 281.401 174.857 246.399 216.817 212.73Z" fill="url(#paint2_linear_1_2)"/>
</g>
</g>
<defs>
<linearGradient id="paint0_linear_1_2" x1="3.21938" y1="0.500793" x2="185.889" y2="0.500793" gradientUnits="userSpaceOnUse">
<stop offset="0.1885" stop-color="#2563EB"/>
<stop offset="0.7235" stop-color="#7094EC"/>
<stop offset="1" stop-color="#93C5FD"/>
</linearGradient>
<linearGradient id="paint1_linear_1_2" x1="5.75018" y1="0" x2="396.79" y2="0" gradientUnits="userSpaceOnUse">
<stop offset="0.1885" stop-color="#2563EB"/>
<stop offset="0.7235" stop-color="#7094EC"/>
<stop offset="1" stop-color="#93C5FD"/>
</linearGradient>
<linearGradient id="paint2_linear_1_2" x1="81.9334" y1="7.58344" x2="393.999" y2="7.58344" gradientUnits="userSpaceOnUse">
<stop offset="0.1885" stop-color="#2563EB"/>
<stop offset="0.7235" stop-color="#7094EC"/>
<stop offset="1" stop-color="#93C5FD"/>
</linearGradient>
<clipPath id="clip0_1_2">
<rect width="400" height="400" rx="200" fill="white"/>
</clipPath>
<clipPath id="clip1_1_2">
<rect width="400" height="400" fill="white"/>
</clipPath>
</defs>
</svg>
